<svg xmlns="http://www.w3.org/2000/svg" viewBox="0 0 435.23 203.36">
  <defs>
    <style>
      .cls-1, .cls-2 {
        fill: #d31c68;
      }

      .cls-2 {
        opacity: 0.73;
      }

      .cls-3 {
        fill: #5f33e3;
      }

      .cls-4, .cls-5 {
        fill: #bbdd2a;
      }

      .cls-5 {
        opacity: 0.64;
      }
    </style>
  </defs>
  <g id="Слой_2" data-name="Слой 2">
    <g id="Слой_3_Изображение" data-name="Слой 3 Изображение">
      <g id="Слой_5" data-name="Слой 5">
        <ellipse class="cls-1" cx="241.82" cy="95.51" rx="55.25" ry="50.18"/>
        <g id="Слой_7" data-name="Слой 7">
          <ellipse class="cls-1" cx="360.37" cy="142.89" rx="54.5" ry="52.18"/>
          <ellipse class="cls-1" cx="136.57" cy="134.54" rx="57.25" ry="54.67"/>
          <ellipse class="cls-1" cx="68.04" cy="130.65" rx="40.77" ry="42.81"/>
        </g>
        <g id="Слой_13" data-name="Слой 13">
          <circle class="cls-2" cx="408.29" cy="22.35" r="22.35"/>
        </g>
      </g>
      <g>
        <ellipse class="cls-3" cx="430.46" cy="199.24" rx="4.45" ry="4.12"/>
        <path class="cls-3" d="M402.82,135.3a32.29,32.29,0,0,0-16.71,4.64v-6.83H111.74c-13.27-8.42-28.88-14.1-44.13-15.25-39.42-3-61.51,25.34-64,58.25a50.77,50.77,0,0,0,2.21,19.1,5.36,5.36,0,0,0-1-.09C2.16,195.12,0,197,0,199.24s2.16,4.12,4.83,4.12a5.15,5.15,0,0,0,3.61-1.42c.61,1.29,133.62,1,134.81-1.82H386.11v-4.64a32.41,32.41,0,1,0,16.71-60.18Z"/>
      </g>
    </g>
    <g id="Слой_8" data-name="Слой 8">
      <ellipse class="cls-4" cx="200.24" cy="74.53" rx="54.5" ry="52.18"/>
      <ellipse class="cls-4" cx="130.38" cy="107.38" rx="62.34" ry="47.49"/>
      <g id="Слой_9" data-name="Слой 9">
        <ellipse class="cls-4" cx="318.16" cy="117.86" rx="54.5" ry="52.18"/>
      </g>
    </g>
    <g id="Слой_12" data-name="Слой 12">
      <circle class="cls-3" cx="277.16" cy="121.35" r="54.51"/>
    </g>
    <g id="Слой_3" data-name="Слой 3">
      <circle class="cls-3" cx="342.88" cy="142.89" r="45.8"/>
    </g>
    <g id="Слой_2-2" data-name="Слой 2">
      <path class="cls-3" d="M198.28,173.46c4.6-9.11,7.38-17.18,8.2-28.09C209.7,102.91,181.2,75.23,141,72.18s-77,19.7-80.25,62.15A80.13,80.13,0,0,0,67,172.4"/>
    </g>
    <g id="Слой_10" data-name="Слой 10">
      <circle class="cls-4" cx="398.7" cy="174.04" r="29.28"/>
    </g>
    <g id="Слой_11" data-name="Слой 11">
      <g id="Слой_14" data-name="Слой 14">
        <path class="cls-1" d="M337.89,198.22a27.17,27.17,0,0,1-3.83-13.9c0-15.85,13.72-28.7,30.65-28.7s30.65,12.85,30.65,28.7a27.18,27.18,0,0,1-3.88,14"/>
      </g>
      <ellipse class="cls-3" cx="206.73" cy="93.88" rx="62.31" ry="60.33"/>
      <rect class="cls-3" x="4.83" y="195.12" width="425.81" height="8.24"/>
      <circle class="cls-5" cx="388.68" cy="53.16" r="26.71"/>
    </g>
  </g>
</svg>
