<?xml version="1.0" encoding="utf-8"?>
<!-- Generator: Adobe Illustrator 24.1.1, SVG Export Plug-In . SVG Version: 6.00 Build 0)  -->
<svg version="1.1" id="Слой_1" xmlns="http://www.w3.org/2000/svg" xmlns:xlink="http://www.w3.org/1999/xlink" x="0px" y="0px"
	 viewBox="0 0 423 419" style="enable-background:new 0 0 423 419;" xml:space="preserve">
<style type="text/css">
	.st0{fill:#5F33E3;}
	.st1{fill:#FFFFFF;}
	.st2{fill:#FFFFFF;stroke:#000000;stroke-miterlimit:10;}
</style>
<g>
	<g>
		<g>
			<path class="st0" d="M416.77,209.73c0,112.99-91.6,204.59-204.59,204.59S7.59,322.72,7.59,209.73S99.19,5.14,212.18,5.14
				C325.18,5.14,416.77,96.74,416.77,209.73"/>
			<path class="st1" d="M262.61,292.63h-44.34c-2.97-9.79-5.93-19.56-8.89-29.33c-1.51-5-3.12-9.97-4.45-15.02
				c-0.55-2.09-1.56-2.58-3.57-2.57c-15.58,0.08-31.17,0.11-46.75-0.03c-2.55-0.02-3.25,1.02-3.82,3.14
				c-3.64,13.36-7.53,26.66-11.02,40.07c-0.84,3.23-2.24,3.98-5.35,3.93c-11.48-0.19-22.97-0.08-34.46-0.08h-4.17
				c0.45-1.67,0.76-2.96,1.15-4.22c17.88-58.41,35.79-116.8,53.58-175.23c0.89-2.91,2.1-3.83,5.14-3.8
				c15.69,0.17,31.39,0.11,47.09,0.04c2.2-0.01,3.38,0.39,4.13,2.81c18.28,59.23,36.66,118.43,55.02,177.64
				C262.11,290.72,262.29,291.48,262.61,292.63 M198,214.41c-6.92-24.67-13.75-49.04-20.58-73.41c-0.21,0.03-0.43,0.06-0.64,0.09
				c-6.32,24.34-12.64,48.69-19.03,73.31H198V214.41z"/>
			<rect x="279.12" y="160.06" class="st1" width="40.83" height="132.48"/>
			<path class="st1" d="M299.28,143.49c-12.6-0.01-21.46-8.51-21.48-20.6c-0.01-12.4,9-21.01,21.93-20.93
				c12.8,0.08,21.85,8.9,21.79,21.22C321.45,135.05,312.19,143.51,299.28,143.49"/>
		</g>
	</g>
</g>
<path class="st2" d="M1137.5-431.5"/>
</svg>
