<?xml version="1.0" encoding="utf-8"?>
<!-- Generator: Adobe Illustrator 24.1.1, SVG Export Plug-In . SVG Version: 6.00 Build 0)  -->
<svg version="1.1" id="Слой_1" xmlns="http://www.w3.org/2000/svg" xmlns:xlink="http://www.w3.org/1999/xlink" x="0px" y="0px"
	 viewBox="0 0 425 422" style="enable-background:new 0 0 425 422;" xml:space="preserve">
<style type="text/css">
	.st0{fill:#FFFFFF;stroke:#000000;stroke-miterlimit:10;}
	.st1{fill:#5F33E3;}
	.st2{fill:#FFFFFF;}
</style>
<path class="st0" d="M1143.5-426.5"/>
<g>
	<g>
		<g>
			<path class="st1" d="M418.75,211.26c0,112.88-91.51,204.4-204.4,204.4c-112.88,0-204.4-91.51-204.4-204.4
				s91.51-204.4,204.4-204.4C327.24,6.87,418.75,98.38,418.75,211.26"/>
			<path class="st2" d="M111,97.8l2.37,39.25h159.39l-3.69,41.36l-151.75,1.58l4.21,38.73H266.7l-6.59,56.64l-45.75,12.65
				l-45.93-11.86l-2.37-34.51c0,0-42.68-1.32-42.42-0.53c0.26,0.79,5.53,66.92,5.53,66.92l85.18,24.24l71.7-19.89l12.91-4.61
				l8.3-95.5l9.62-114.47H111z"/>
		</g>
	</g>
</g>
</svg>
