<?xml version="1.0" encoding="utf-8"?>
<!-- Generator: Adobe Illustrator 24.1.1, SVG Export Plug-In . SVG Version: 6.00 Build 0)  -->
<svg version="1.1" id="Слой_1" xmlns="http://www.w3.org/2000/svg" xmlns:xlink="http://www.w3.org/1999/xlink" x="0px" y="0px"
	 viewBox="0 0 428 427" style="enable-background:new 0 0 428 427;" xml:space="preserve">
<style type="text/css">
	.st0{fill:#FFFFFF;stroke:#000000;stroke-miterlimit:10;}
	.st1{fill:#BBDD2A;}
	.st2{fill:#FFFFFF;}
</style>
<path class="st0" d="M1145.5-429.5"/>
<g>
	<g>
		<g>
			<path class="st1" d="M420.52,211.21c0,114.02-92.43,206.45-206.45,206.45S7.62,325.23,7.62,211.21S100.05,4.76,214.07,4.76
				S420.52,97.19,420.52,211.21"/>
			<path class="st2" d="M134.56,232.25v74.6H87.15V100.37c5.15-0.68,10.39-1.57,15.67-2.03c23.91-2.1,47.85-3.6,71.83-0.99
				c12.63,1.37,25.03,4.03,35.89,10.99c22.78,14.6,32.58,35.97,28.92,64.22c-0.6,4.65-1.55,9.37-3.18,13.75
				c-7.34,19.75-21.54,32.7-41.11,39.77c-18.3,6.62-37.33,7.77-56.59,6.49C137.44,232.5,136.31,232.39,134.56,232.25 M134.66,195.62
				c14.83,1.55,29.25,2.67,42.3-5.42c4.2-2.6,8.63-6.07,10.96-10.25c9.58-17.23,5.75-40.22-19.1-46.53
				c-10.33-2.62-20.76-1.72-31.18-0.43c-2.44,0.3-3.07,1.43-3.03,3.77c0.13,8.04,0.05,16.09,0.05,24.13L134.66,195.62L134.66,195.62
				z"/>
			<path class="st2" d="M352.51,160.38c-2.84,11-5.57,21.56-8.39,32.51c-10.37-5.2-20.84-8.34-31.94-8.46
				c-4.24-0.04-8.79,0.45-12.68,2c-8.57,3.41-9.82,14.24-1.85,18.76c8.01,4.55,16.89,7.62,25.51,11.04
				c15.33,6.08,28.7,14.28,33.83,31.23c7.68,25.39-6.41,50.63-32.38,58.09c-23.71,6.81-47.37,6.12-70.85-1.26
				c-11.43-3.59-11.41-3.71-8.59-15.24c1.85-7.55,3.75-15.09,5.66-22.77c5.74,2.24,11.27,4.74,17.01,6.56
				c10.01,3.18,20.25,5.31,30.86,3.88c2.25-0.3,4.55-0.82,6.63-1.71c8.65-3.67,10.13-14.84,2.3-20.01
				c-4.82-3.18-10.44-5.25-15.87-7.38c-9.6-3.76-19.3-7.14-27.81-13.31c-25.47-18.45-20.05-48.98-5.24-64.38
				c9.87-10.26,22.35-15.13,35.93-17.16c18.21-2.72,36.13-0.88,53.45,5.62C349.49,158.94,350.84,159.63,352.51,160.38"/>
		</g>
	</g>
</g>
</svg>
