<?xml version="1.0" encoding="utf-8"?>
<!-- Generator: Adobe Illustrator 24.1.1, SVG Export Plug-In . SVG Version: 6.00 Build 0)  -->
<svg version="1.1" id="Слой_1" xmlns="http://www.w3.org/2000/svg" xmlns:xlink="http://www.w3.org/1999/xlink" x="0px" y="0px"
	 viewBox="0 0 424 425" style="enable-background:new 0 0 424 425;" xml:space="preserve">
<style type="text/css">
	.st0{fill:#FFFFFF;stroke:#000000;stroke-miterlimit:10;}
	.st1{fill:#BADD2A;}
	.st2{fill:#FFFFFF;}
</style>
<path class="st0" d="M1144.5-428.5"/>
<g>
	<g>
		<g>
			<path class="st1" d="M418.52,212.21c0,114.02-92.43,206.45-206.45,206.45c-114.02,0-206.45-92.43-206.45-206.45
				S98.05,5.76,212.07,5.76C326.09,5.76,418.52,98.19,418.52,212.21"/>
		</g>
	</g>
</g>
<polygon class="st2" points="113,104.16 122.28,235.2 262.59,235.2 259.11,289.7 213.89,304.77 167.5,292.02 165.18,257.23 
	123.44,257.23 130.39,325.65 212.73,350 296.22,325.65 306.66,191.13 159.38,192.29 157.07,145.91 312.46,147.07 313.62,103 "/>
</svg>
